<svg xmlns="http://www.w3.org/2000/svg" width="867" height="704" fill="none"><path fill="#000" d="M0 632c0 40 193 72 431 72s431-32 431-72-193-72-431-72S0 592 0 632Z" opacity=".7"/><path fill="#000" d="M849 636c0 7-33 12-73 12s-73-5-73-12 33-13 73-13 73 6 73 13Z" opacity=".7"/><path fill="#8BCDE5" d="m130 74-9-27-27-9 28-10 9-28 9 27 28 9-29 10-9 28Zm545 96-10-28-27-8 28-10 9-28 9 27 28 8-29 11-8 28Z"/><path fill="#fff" d="m758 187-4-14-14-4 14-5 5-14 4 14 14 4-14 5-5 14ZM119 409l-4-14-14-4 14-5 5-15 4 14 14 5-14 5-5 14Z"/><path fill="#8BCDE5" d="m710 222-5-14-14-5 14-5 5-14 4 14 14 4-14 5-4 15Zm-505-63-5-14-14-4 14-5 5-15 5 14 14 5-15 5-4 14Zm-33-64c0 2-2 4-4 4s-4-2-4-4 2-4 4-4 4 2 4 4Zm641 196c0 2-2 4-4 4-3 0-4-2-4-4s1-4 4-4c2 0 4 1 4 4Zm-7 55c0 2-2 4-4 4-3 0-5-2-5-4 0-3 2-4 4-4 3 0 5 1 5 4Zm-48-10c0 2-2 4-4 4s-4-2-4-4 2-4 4-4 4 2 4 4Zm-654-86c0 3-1 5-4 5-2 0-4-2-4-5 0-2 2-4 4-4 3 0 4 2 4 4Zm-24-30c0 2-2 4-5 4-2 0-4-2-4-4s2-4 4-4c3 0 5 2 5 4ZM650 66c0 3-2 5-4 5s-4-2-4-5c0-2 2-4 4-4s4 2 4 4Z"/><path fill="#4D82A3" d="M211 400c-37-55-68-115-91-178l2-59c1-24 1-50-16-67-4-4-9-7-15-6-6 2-9 10-11 16-8 41 10 82 34 117l9 26a357 357 0 0 0 36 79l21 38 25 36c1 1 7-1 6-2Z" opacity=".5"/><path fill="#4D82A3" d="M192 384c-5-11-9-23-12-35l-10-35-8-37-6-36 11-42c5-17 9-36 0-51-2-3-6-7-10-6-5 0-8 5-10 9-13 28-7 61 4 90l2 20 5 32 8 31 9 30 12 30c1 2 5 1 5 0Z" opacity=".5"/><path fill="#4D82A3" fill-rule="evenodd" d="m269 388-35-11-35-14-34-16-32-18-26-35c-11-14-23-28-40-30-4-1-9 0-12 4s-1 9 1 14c15 27 44 42 74 50l18 12 28 15 29 13 30 11 31 9c1 1 3-3 2-4h1Zm351 60 29-24 26-27 25-28 23-30 13-20c28-24 52-54 55-90 0-6-1-13-6-16-4-3-10-1-14 2-17 10-24 32-28 52l-12 50a432 432 0 0 1-54 68l-30 32-32 29c-1 0 3 4 5 2Z" clip-rule="evenodd" opacity=".5"/><path fill="#4D82A3" d="m635 437 18-27 16-27 15-29 13-29v-38c0-15 1-32 12-42 2-3 6-5 10-4 4 2 5 6 6 11 4 26-8 52-24 74l-6 17-11 25-14 24-15 24-16 22c-1 1-5 0-4-1Z" opacity=".5"/><path fill="#4D82A3" d="m569 423 32-2 32-4 32-5 31-8 30-23c12-10 26-19 41-17 3 1 7 2 9 6 1 4-2 8-5 11-18 20-46 26-73 26l-17 6-27 6-28 5-27 2-28 1-2-4Z" opacity=".5"/><path fill="#DC903C" d="m847 569-2-15h-1c-2-9-29-16-61-16-34 0-62 8-62 17v1l-1 13c0 25 16 48 38 58-6 1-9 3-9 5 0 5 16 8 35 8s34-3 34-8c0-2-3-4-9-5 22-10 38-33 38-58Z"/><path fill="#2B3448" d="m847 569-2-15h-1c-1-3-4-6-9-8 3 5 5 11 6 17 1 17-9 34-23 43-13 9-31 9-47 5-23-5-43-21-51-42 0 25 16 48 38 58-6 1-9 3-9 5 0 5 15 8 34 8 20 0 35-3 35-8 0-2-3-4-9-5 22-10 38-33 38-58Z" opacity=".1"/><path fill="#74471B" d="M833 555c0 7-23 14-50 14-28 0-50-6-50-14s22-14 50-14c27 0 50 6 50 14Z"/><path fill="#5CA28B" d="M783 562c-9-6-19-12-26-21-8-9-12-20-10-31 2-6 5-11 4-16 0-12-12-19-19-28-9-11-9-27-8-41 5 16 22 22 35 33s21 28 25 46c3 17 2 36 1 53l-2 5Z"/><path fill="#2B3448" d="M769 487c-9-24-33-37-45-58-1 13 0 27 8 37 7 9 19 16 19 28 0 5-2 10-4 16-2 11 2 22 10 31 5 7 13 12 20 17 2-25 1-49-8-72v1Z" opacity=".2"/><path fill="#5CA28B" d="M783 562a56 56 0 0 1-12-42l4-14c5-13 15-23 17-37l-1-20c-1-10 2-19 7-27-3 28 17 54 17 81 0 22-32 58-32 58v1Z"/><path fill="#2B3448" d="M798 457c1 22-2 42-7 63-3 12-4 22-2 32 16-11 26-29 26-49 0-23-14-45-17-68v22Z" opacity=".2"/><path fill="#5CA28B" d="M783 561c0-17 1-37 13-50 10-11 27-15 35-28 8-10 7-25 10-37 3-13 10-25 21-33l3 39c2 15 3 31-2 46-5 16-17 29-30 38-13 10-29 16-44 23l-6 2Z"/><path fill="#2B3448" d="M863 424c-5 13-7 27-12 40-6 20-17 37-31 52-13 13-23 24-27 41 14-6 28-12 40-21 14-9 25-22 30-38 5-15 4-31 2-46l-2-28Z" opacity=".2"/><path fill="#8BCDE5" d="m145 574-43 14s339 99 355 105c15 6 262-79 262-79l-69-22-505-18Z"/><path fill="#2B3448" d="M276 660 65 611c-6-2-12 2-14 8-1 6 3 12 9 14l211 49 5-22Z"/><path fill="#fff" d="M51 624c1 4 4 8 9 9l211 49 1-6-221-52Z" opacity=".2" style="mix-blend-mode:overlay"/><path fill="#ECB751" d="m90 617-5 22-6-1 5-23 6 2Zm96 22-5 23-6-2 5-22 6 1Z"/><path fill="#ECB751" fill-rule="evenodd" d="m79 620-1 3 67 16 1-3-67-16Zm192 62 20-3 2-7-17-12-5 22Z" clip-rule="evenodd"/><path fill="#DE6C6B" d="m696 609-17-8c-22-12-8-84-8-84l-197 57-332-83c-11 41-2 96-2 96l307 84 27 7c230-66 222-69 222-69Z"/><path fill="#DE6C6B" d="m479 575 220-66-332-71-225 53 337 84Z"/><path fill="#2B3448" d="m146 584-3-20v-21l2-20 5-20-2 10-2 10-1 10v41l1 10Zm311 84-3-20-1-21 2-20c1-7 3-14 6-20l-3 10-2 10-1 10v30l1 11 1 10ZM160 502l72 18 72 19 71 19 36 10 36 10-36-9-36-9-72-19-71-19-72-20Z" opacity=".4"/><g fill="#fff" fill-rule="evenodd" clip-rule="evenodd" opacity=".4"><path d="m222 604-66-20 4-75 65 17-3 78Zm-64-20 62 18 2-75-60-16-4 73Z"/><path d="m190 557-31-28 33-10 31 28-33 10Zm-28-27 28 25 30-9-28-25-30 9Z"/><path d="m188 577-31-28 33-11 31 29-33 10Zm-28-27 28 25 30-9-28-26-30 10Z"/><path d="m188 594-31-29 32-11 32 29-33 11Zm-28-28 27 26 31-10-29-25-29 9Z"/></g><g fill="#fff" fill-rule="evenodd" clip-rule="evenodd" opacity=".4"><path d="m295 625-66-20 4-75 64 17-2 78Zm-64-20 61 18 3-75-60-16-4 73Z"/><path d="m263 578-31-28 32-10 32 28-33 10Zm-28-27 28 25 30-9-29-25-29 9Z"/><path d="m261 598-31-28 33-11 31 29-33 10Zm-28-27 28 25 30-9-28-26-30 10Z"/><path d="m260 615-31-29 33-11 32 29-34 11Zm-28-28 28 26 30-10-28-25-30 9Z"/></g><g fill="#fff" fill-rule="evenodd" clip-rule="evenodd" opacity=".4"><path d="m369 646-66-20 4-75 65 17-3 78Zm-63-20 61 18 3-75-61-16-3 73Z"/><path d="m338 599-31-28 32-10 32 28-33 10Zm-28-27 28 25 29-9-28-25-29 9Z"/><path d="m336 619-31-28 32-11 32 29-33 10Zm-28-27 28 25 30-9-29-26-29 10Z"/><path d="m335 636-31-29 33-11 31 29-33 11Zm-28-28 28 26 30-10-28-25-30 9Z"/></g><g fill="#fff" fill-rule="evenodd" clip-rule="evenodd" opacity=".4"><path d="m444 666-66-20 4-75 65 17-3 78Zm-63-20 61 18 3-75-61-16-3 73Z"/><path d="m413 619-31-28 32-10 32 28-33 10Zm-28-27 28 25 29-9-28-25-29 9Z"/><path d="m411 639-31-28 32-11 32 29-33 10Zm-28-27 28 25 30-9-29-26-29 10Z"/><path d="m410 656-31-29 33-11 31 29-33 11Zm-28-28 28 26 30-10-29-26-29 10Z"/></g><mask id="a" width="221" height="144" x="465" y="529" maskUnits="userSpaceOnUse" style="mask-type:luminance"><path fill="#fff" d="M480 572s-26 52-8 101l214-69s-18-34-1-75l-205 43Z"/></mask><g mask="url(#a)"><path fill="#fff" d="M481 572s-27 52-9 101l214-69s-14-47 3-89l-208 57Z"/><path fill="#74471B" d="M644 610c-30 11-59 20-91 22-31 3-63-5-83-31-4 20-7 46 2 72l214-69-2-10-40 16Z" opacity=".1"/><path fill="#74471B" d="M461 593v-2l232-51v1l-232 52Zm1 16-1-1 232-56v2l-231 55Zm-2 17-1-1 232-56v2l-231 55Zm-1 15v-1l230-59 1 1-231 59Zm3 20v-1l228-66 1 1-229 66Z" opacity=".2"/></g><path fill="#4471BF" d="m468 581-327-85s-6 22-2 35l327 87 9-36-7-1Z" opacity=".1"/><path fill="#2B3448" d="m140 587 334 92-7-35-328-83s-2 21 1 26Z" opacity=".1"/><path fill="#ECB751" d="M201 409s-6 37-1 61c0 0 208 113 223 117s301-51 301-51l-38-9-2-68 35-6-241-97-277 53Z"/><path fill="#fff" d="m696 457-269 43s-16 50 0 77l277-47s-7-35-8-73Z"/><path fill="#74471B" d="M560 546c-47 2-98 1-139-20-2 16-2 37 6 51l277-47v-2c-48 10-96 17-144 18Z" opacity=".1"/><g opacity=".3"><path stroke="#2B3448" stroke-width="2" d="m223 422-11-4-6 24 5 29 11 6 7-24-6-31Z"/><path fill="#2B3448" d="m220 436-6-2-2 11 2 13 5 2 3-10-2-14Z"/><path stroke="#2B3448" stroke-width="2" d="m229 480-24-12 1-53 24 10-1 55Zm67-29-16-6-9 27 6 34 16 8 10-27-7-36Z"/><path fill="#2B3448" d="m291 467-7-3-4 12 2 15 7 4 4-13-2-15Z"/><path stroke="#2B3448" stroke-width="2" d="m302 518-32-16 2-61 33 13-3 64Zm97-27-24-9-14 31 8 40 22 12 16-31-8-43Z"/><path fill="#2B3448" d="m390 509-10-4-7 14 4 18 10 5 6-14-3-19Z"/><path stroke="#2B3448" stroke-width="2" d="m404 571-46-23 6-71 48 19-8 75Z"/><path fill="#2B3448" d="m251 492-5-3 1-58 6 2-2 59Zm79 41-7-3 5-67 7 3-5 67Z"/></g><path fill="#4471BF" d="m201 409 226 91s-7 28-7 34L199 431l2-22Z" opacity=".1"/><path fill="#DC903C" d="m200 470 223 117s-9-14-9-38l-215-98 1 19Z" opacity=".3"/><mask id="b" width="285" height="120" x="419" y="457" maskUnits="userSpaceOnUse" style="mask-type:luminance"><path fill="#fff" d="m696 457-269 43s-16 50 0 77l277-47s-7-35-8-73Z"/></mask><g mask="url(#b)"><path fill="#74471B" d="M415 515v-1l288-48v1l-288 48Zm1 12v-1l288-48v1l-288 48Zm-1 13v-1l288-48v1l-288 48Zm1 13-1-1 289-48v1l-288 48Zm0 15v-2l288-47v1l-288 48Z" opacity=".4"/></g><path fill="#5CA28B" d="M166 301s-22 44-1 94l296 92 223-61-19-5-4-84 21-6-279-84-237 54Z"/><path fill="#fff" d="m665 336-209 44s-32 60 9 97l202-56-2-85Z"/><path fill="#74471B" d="M578 355h8l8-1h9l8-1h4l38-8 12-4v-5l-90 19h3Zm-4 75-90-6c-13-1-27-2-40-5-2 19 2 41 21 58l202-56v-4c-30 8-61 13-93 13Z" opacity=".1"/><path fill="#2B3448" d="m169 391-6-21-2-22 1-5v-6l1-5 1-5 2-11 4-10-5 21v5l-1 5v22l1 11 2 10 2 11Zm270 82c-4-7-5-14-7-21l-1-22v-11l1-5 1-6 3-10 3-10-4 21-1 5v6l-1 2v19l1 11 2 10 3 11Z" opacity=".4"/><path fill="#2B3448" fill-rule="evenodd" d="m179 352 20-3 37 29-42-7-15-19Zm14-30 21 9 25 48-39-31-7-26Zm1 51 44 7-39 14-19-8 14-13Z" clip-rule="evenodd" opacity=".2"/><path fill="#2B3448" d="M258 335s-18 44-6 85l46 16s-10-69 10-85l-50-16Zm103 32s-19 47-6 86l14 6s-4-66 11-88l-19-4Z" opacity=".2"/><mask id="c" width="223" height="141" x="444" y="336" maskUnits="userSpaceOnUse" style="mask-type:luminance"><path fill="#fff" d="m665 336-209 44s-32 60 9 97l202-56-2-85Z"/></mask><g mask="url(#c)"><path fill="#74471B" d="M446 390v-1l240-52v1l-240 52Zm-3 13v-1l239-54 1 1-240 54Zm-2 15v-1l238-58 1 1-239 58Zm-1 11v-1l238-58 1 1-239 58Zm0 12v-1l239-58v1l-239 58Zm2 11-1-1 239-58 1 1-239 58Zm10 20v-1l238-61v2l-238 60Zm-5-11v-1l238-57 1 1-239 57Z" opacity=".3"/></g><path fill="#4471BF" d="m166 301 290 79s-12 28-13 42l-287-88s5-28 10-33Z" opacity=".1"/><path fill="#2B3448" d="m163 395 298 92s-17-6-22-36l-283-85s4 24 7 29Z" opacity=".1"/><path fill="#2B3448" d="M189 204s-7 60-1 75l223 91 268-47-27-6-3-64 24-3-268-78-216 32Z"/><path fill="#fff" d="m656 253-238 30s-28 53 7 75l233-38-2-68v1Z"/><path fill="#74471B" d="M563 333c-30 0-59-3-88-5-18-2-36-4-51-12l-15-9c-4 17-4 39 16 51l159-26-21 1Z" opacity=".1"/><g fill="#ECB751" opacity=".5"><path d="M207 250h-2l-1-2h2l1 2Zm29-8h-2l-2-2h2l2 2Zm-2 37h-2l-2-2h2l2 2Zm30-7h-2l-2-2h2c2 0 2 1 2 2Z"/><path fill-rule="evenodd" d="m276 243-4 64-77-32 2-29 1-30 78 27Zm-58-4 14 18 1-11 2 1v11l17-7-15-19-19 7Zm18-9-35-12 16 20 19-8Zm17 21 19-8-33-12 14 20Zm3 17v1l-20-7 16 20 18-6-17-23-18 7 21 8Zm-39-28-18 7 15 19 17-6-20-8v-1l21 7-15-18Zm-1 28 16 20 19-6-17-20v13l-3-1 1-13-16 7Zm-2 0-15 6 32 14-17-20Zm20 21 34 15-16-20-18 5Zm36 14 1-26-17 6 16 20Zm2-29 2-29-19 7 17 22Zm-73-29 16-7-15-19-1 26Zm0 3-2 25 16-7-14-18Z" clip-rule="evenodd"/></g><g fill="#ECB751" opacity=".5"><path d="m322 291-2 1-2-2h2l2 1Zm29-7h-2l-2-2h2l2 2Zm-2 37h-2l-2-2h2l2 2Zm30-7h-2l-2-2h2l2 2Z"/><path fill-rule="evenodd" d="m391 285-5 64-76-33 1-28v-1l1-30 79 28Zm-58-4 14 18v-11l3 1-1 11 17-7-14-19-19 7Zm17-9-34-12 15 19 19-7Zm18 20 19-7-34-12 15 19Zm2 18v1l-19-7 16 19 18-6-17-22-18 7 20 8Zm-39-28-18 7 16 19 16-7-19-7v-1l20 7-15-18Zm-1 28 17 20 18-6-16-20-1 13-2-1 1-13-17 7Zm-1 0-16 6 32 14-16-20Zm20 21 34 15-16-20-18 5Zm35 14 2-26-18 6 16 20Zm2-29 2-29-18 7 16 22Zm-73-29 17-7-15-19-2 26Zm0 3-1 25 16-7-15-18Z" clip-rule="evenodd"/></g><mask id="d" width="251" height="106" x="407" y="252" maskUnits="userSpaceOnUse" style="mask-type:luminance"><path fill="#fff" d="m656 252-238 31s-28 53 7 75l233-38-2-68Z"/></mask><g mask="url(#d)"><path fill="#74471B" d="m404 315-1-1 271-36v1l-270 36Zm0 17-1-1 271-36v1l-270 36Zm0 18v-1l270-39v1l-270 39Zm-1-54v-1l271-32v1l-271 32Z" opacity=".3"/></g><path fill="#ECB751" d="M469 287s30 45 23 102l15-13 12 12s1-77-20-103l-30 2Z"/><path fill="#4471BF" d="M189 204s224 71 224 74c0 4-15 28-12 50l-214-84 2-40Z" opacity=".1"/><path fill="#DC903C" d="M649 264H243v-65h406v65Z"/><path fill="#2B3448" d="M649 264H243v-14h406v14Z" opacity=".1"/><path fill="#4471BF" d="M649 223H243v-24h406v24Z" opacity=".1"/><path fill="#74471B" d="M301 199h-36v65h36v-65Zm31 0h-6v65h6v-65Zm229 0H358v65h203v-65Zm51 0h-26v65h26v-65Z" opacity=".3"/><path fill="#DC903C" d="m243 199-3-51 373-3 36 54H243Z"/><path fill="#DE6C6B" d="M262 113v58l257 28 98-31-13-5 1-47 10-4-240-22-113 23Z"/><path fill="#fff" d="m610 114-92 25v54l91-28 1-51Z"/><path fill="#ECB751" d="m499 152-227-26v-2l227 26v2Zm-1 14-228-26 1-2 227 26v2Zm0 13-228-26 1-2 227 26v2Zm0 13-228-26 1-2 227 26v2Z"/><mask id="e" width="92" height="79" x="518" y="114" maskUnits="userSpaceOnUse" style="mask-type:luminance"><path fill="#fff" d="m610 114-92 25v54l91-28 1-51Z"/></mask><g mask="url(#e)"><path fill="#74471B" d="M513 148v-1l110-30v1l-110 30Zm1 13v-1l110-29v1l-110 29Zm1 12-1-1 110-29 1 1-110 29Zm1 13-1-1 110-30 1 1-110 30Z" opacity=".4"/></g><path fill="#2B3448" d="m262 171 257 28-1-23-255-26-1 21Z" opacity=".1"/><path fill="#4471BF" d="m262 113 256 26v14l-255-22-1-18Z" opacity=".1"/><path fill="#74471B" d="M518 139v54l82-26s-81 24-82-28Z" opacity=".1"/><path fill="#4D82A3" d="M225 51s-12 24-2 47l214 41 181-29-14-3 3-47 11-2-213-35S232 41 225 51Z"/><mask id="f" width="171" height="74" x="438" y="60" maskUnits="userSpaceOnUse" style="mask-type:luminance"><path fill="#fff" d="M447 89s-16 22-3 45l163-27 2-47-162 29Z"/></mask><g mask="url(#f)"><path fill="#fff" d="M447 89s-16 22-3 45l163-27 2-47-162 29Z"/><path fill="#74471B" d="M530 120c-18 0-38-1-56-6-12-3-22-9-32-16-3 9-6 23 2 36l87-14h-1Z" opacity=".1"/><path fill="#74471B" d="m430 99-1-1 195-32v1L430 99Zm0 11-1-1 195-32v1l-194 32Zm0 11-1-1 195-31v1l-194 31Zm0 9-1-1 195-31v1l-194 31Z" opacity=".4"/></g><path fill="#ECB751" fill-rule="evenodd" d="M444 49c10 2 11 5 3 6-9 1-24 1-35-1-10-1-12-4-3-5 9-2 24-1 35 0Zm-45-1h-16l-5-1c-5 0-6-2-8-3-4-2-16-4-29-5l34 1c12 2 17 4 22 6l7 2h-5Zm54 8h16l5 1 8 3c5 2 16 4 29 5l-34-1c-11-1-16-4-22-6l-6-2h4Zm-33-9-11-2-3-1c-1-1 4-2 7-3 5-2 4-4-4-6 10 1 22 2 26 4s-2 4-6 6l-5 2h-4Zm12 11 12 1 2 2c1 1-4 1-6 2-6 2-4 5 4 6-11-1-22-2-26-4s1-4 5-6l5-2 4 1Zm6-12 2-2 17-1c12 0 20-2 20-4 5 2 10 4 6 6l-27 3-12 1-6-3Zm-27 10 3 3-2 1-16 1c-12 1-21 2-21 4-5-1-10-4-6-5 4-2 17-3 27-3l13-1h2Zm47-4 8-2h7l18 2h37c-4 1-10 3-21 3-11 1-25 0-37-1l-14-1 2-1Zm-64 0-8 2h-7l-18-1h-38c5-2 11-4 22-4l37 2 14 1h-2Zm-120 7c-14 14-4 48-4 48l-19-3c-15-20-1-48-1-48l24 3Zm127 25c-14 14-4 48-4 48l-18-4c-15-19-1-48-1-48l23 4Z" clip-rule="evenodd"/><path fill="#4471BF" d="m225 51 222 38s-9 13-9 24L219 73s1-18 6-22Z" opacity=".1"/><path fill="#2B3448" d="M435 88 238 53v-2l197 35v2Z" opacity=".4"/><path fill="#2B3448" d="m436 131-1-6-215-36 3 9 214 41-1-8Z" opacity=".2"/><path fill="#4471BF" d="M254 43s82-14 151-20l126 20H254Z" opacity=".1"/></svg>