<svg xmlns="http://www.w3.org/2000/svg" width="667" height="667" fill="none"><g clip-path="url(#a)"><mask id="b" width="667" height="667" x="0" y="0" maskUnits="userSpaceOnUse" style="mask-type:luminance"><path fill="#fff" d="M0 0h667v667H0V0Z"/></mask><g mask="url(#b)"><path fill="#AF0" d="M40 389s15 105 110 165 217 50 316 45 168-70 171-156c2-86-76-102-127-193-50-91-50-123-143-172-92-48-223 4-283 114S40 389 40 389Z"/><mask id="c" width="599" height="544" x="38" y="59" maskUnits="userSpaceOnUse" style="mask-type:luminance"><path fill="#fff" d="M38 60h599v543H38V60Z"/></mask><g mask="url(#c)"><path fill="#fff" d="M40 389s15 105 110 165 217 50 316 45 168-70 171-156c2-86-76-102-127-193-50-91-50-123-143-172-92-48-223 4-283 114S40 389 40 389Z" opacity=".7"/></g></g><mask id="d" width="667" height="667" x="0" y="0" maskUnits="userSpaceOnUse" style="mask-type:luminance"><path fill="#fff" d="M0 0h667v667H0V0Z"/></mask><g stroke="#1A2E35" stroke-linecap="round" stroke-linejoin="round" stroke-miterlimit="10" stroke-width="1.3" mask="url(#d)"><path d="M452 91a68 68 0 0 0-17 45h52l-35-45ZM549 86l-34 50h56c0-20-8-38-22-50ZM456 87l38 49h4V68c-16 1-31 8-42 19ZM433 402h62v-77h-62v77ZM504 68v68h4l37-54c-11-9-26-14-41-14ZM510 224h61v-77h-61v77ZM433 313h62v-77h-62v77ZM510 313h61v-77h-61v77ZM510 402h61v-77h-61v77ZM433 224h62v-77h-62v77Z"/></g><mask id="e" width="667" height="667" x="0" y="0" maskUnits="userSpaceOnUse" style="mask-type:luminance"><path fill="#fff" d="M0 0h667v667H0V0Z"/></mask><g mask="url(#e)"><path fill="#AF0" d="M652 552c0 30-139 55-311 55S30 582 30 552s139-55 311-55 311 25 311 55Z"/><mask id="f" width="622" height="110" x="30" y="497" maskUnits="userSpaceOnUse" style="mask-type:luminance"><path fill="#fff" d="M30 497h622v110H30V497Z"/></mask><g mask="url(#f)"><path fill="#fff" d="M652 552c0 30-139 55-311 55S30 582 30 552s139-55 311-55 311 25 311 55Z" opacity=".5"/></g></g><mask id="g" width="667" height="667" x="0" y="0" maskUnits="userSpaceOnUse" style="mask-type:luminance"><path fill="#fff" d="M0 0h667v667H0V0Z"/></mask><g mask="url(#g)"><path fill="#AF0" d="M602 265s0-6-9-15l-14-14s-5 14 3 23c9 9 20 17 20 17v-11ZM589 304s0-6-9-15l-14-14s-5 15 4 24l19 17v-12Z"/><path fill="#AF0" d="M601 276s1-7 11-14l15-13s3 15-6 23-21 15-21 15l1-11ZM586 322s1-6 12-13l17-10s1 15-9 22l-23 12 3-11ZM589 373s0-7 9-15l14-14s4 14-4 23-19 17-19 17v-11ZM589 385s0-6-7-16l-12-16s-7 14 0 24l17 19 2-11ZM580 422s0-7 9-16l14-13s5 14-4 23c-8 9-19 17-19 17v-11ZM586 455s-2-6 4-17l11-17s8 13 2 23c-5 11-14 22-14 22l-3-11Z"/><path stroke="#1A2E35" stroke-linecap="round" stroke-linejoin="round" stroke-miterlimit="10" stroke-width=".7" d="m603 263-3 20c-3 18-12 29-15 46-4 16 6 37 3 58-2 21-10 32-8 46s14 52 14 52M601 280l10-7M602 271l-4-7M585 328l16-12"/><path stroke="#1A2E35" stroke-linecap="round" stroke-linejoin="round" stroke-miterlimit="10" stroke-width=".7" d="M589 316s-7-13-14-22M589 382s6-13 17-23M588 390l-9-16-5-8M580 433l7-14 9-12M589 466s-1-8 2-14l9-18"/><path fill="#AF0" d="M544 349s-1-4 4-10l8-11s4 9 0 15c-4 7-11 13-11 13l-1-7ZM556 372s0-4 4-10l8-10s4 8 0 15l-10 12-2-7Z"/><path fill="#AF0" d="M546 356s-1-4-8-8l-12-6s0 10 7 14c6 4 15 7 15 7l-2-7ZM560 383s-1-4-8-7l-12-5s1 10 8 13c6 4 15 6 15 6l-3-7ZM564 415s-1-4-7-8l-11-8s-1 10 5 15l14 8-1-7Z"/><path fill="#AF0" d="M565 423s-1-4 3-11l6-11s5 8 2 15l-8 14-3-7ZM577 455s0-4 6-9l10-8s2 9-4 14l-13 10 1-7ZM575 445s-1-4-7-9l-11-7s-1 10 5 14l14 9-1-7ZM575 466s0-4-5-10l-8-9s-4 9 1 15c4 6 11 11 11 11l1-7Z"/><path stroke="#1A2E35" stroke-linecap="round" stroke-linejoin="round" stroke-miterlimit="10" stroke-width=".7" d="m543 348 4 12c4 11 11 17 15 27s0 24 4 37 10 19 10 28l-3 34M546 358l-7-3M545 353l2-5M562 387l-12-6"/><path stroke="#1A2E35" stroke-linecap="round" stroke-linejoin="round" stroke-miterlimit="10" stroke-width=".7" d="M558 379s2-9 6-15M565 421s-5-7-13-13M567 426l3-11 3-6M576 459l7-8 5-4M576 452l-6-8-7-7M574 473s0-4-3-8l-7-10"/><path fill="#1A2E35" d="M608 529h-49c-3 0-4-1-4-4v-43h57v43c0 3-2 4-4 4Z"/></g><mask id="h" width="667" height="667" x="0" y="0" maskUnits="userSpaceOnUse" style="mask-type:luminance"><path fill="#fff" d="M0 0h667v667H0V0Z"/></mask><g mask="url(#h)"><path fill="#9A9A9A" d="M484 436s7-17 3-53c-2-16-1-49-23-50-23-1-32 1-56 2-84 0-145 9-196 4-41-4-77-11-92 4-14 15-13 46-12 52l11 47 363-1 2-5Z"/><path stroke="#1A2E35" stroke-linecap="round" stroke-linejoin="round" stroke-miterlimit="10" stroke-width="1.3" d="M484 436s7-17 3-53c-2-16-1-49-23-50-23-1-32 1-56 2-84 0-145 9-196 4-41-4-77-11-92 4-14 15-13 46-12 52l11 47 363-1 2-5Z"/><path fill="#B3B3B3" d="M124 426s-7-28-18-36c-12-7-27 1-39 13-13 12-16 26-11 50s20 59 24 75c5 16 5 24 20 30 15 5 29 5 38-8s7-71 0-93c-8-22-14-31-14-31Z"/><path stroke="#1A2E35" stroke-linecap="round" stroke-linejoin="round" stroke-miterlimit="10" stroke-width="1.3" d="M124 426s-7-28-18-36c-12-7-27 1-39 13-13 12-16 26-11 50s20 59 24 75c5 16 5 24 20 30 15 5 29 5 38-8s7-71 0-93c-8-22-14-31-14-31Z"/><path fill="#8B8B8B" d="M123 549c-7-12-26-98-25-110 0-11-10-31-21-33-10-1-18 8-20 12-4 9-4 20-1 35 5 24 4 60 9 76 4 16 4 24 19 29 10 4 35 4 43 1l-4-10Z"/><path stroke="#1A2E35" stroke-linecap="round" stroke-linejoin="round" stroke-miterlimit="10" stroke-width="1.3" d="M123 549c-7-12-26-98-25-110 0-11-10-31-21-33-10-1-18 8-20 12-4 9-4 20-1 35 5 24 4 60 9 76 4 16 4 24 19 29 10 4 35 4 43 1l-4-10Z"/><path fill="#B3B3B3" d="M465 425s7-28 19-35c12-8 28 0 41 13 13 12 17 26 12 50-6 24-21 59-26 75s-5 24-21 29c-15 5-30 5-40-7-10-13-7-72 1-93 7-22 14-32 14-32Z"/><path stroke="#1A2E35" stroke-linecap="round" stroke-linejoin="round" stroke-miterlimit="10" stroke-width="1.3" d="M465 425s7-28 19-35c12-8 28 0 41 13 13 12 17 26 12 50-6 24-21 59-26 75s-5 24-21 29c-15 5-30 5-40-7-10-13-7-72 1-93 7-22 14-32 14-32Z"/><path fill="#8B8B8B" d="M466 550c7-12 27-99 27-111-1-12 10-32 22-33 10-2 18 8 21 11 4 10 4 21 1 36l-19 76c-4 16-4 25-20 30-10 3-28 5-36 1l4-10Z"/><path stroke="#1A2E35" stroke-linecap="round" stroke-linejoin="round" stroke-miterlimit="10" stroke-width="1.3" d="M466 550c7-12 27-99 27-111-1-12 10-32 22-33 10-2 18 8 21 11 4 10 4 21 1 36l-19 76c-4 16-4 25-20 30-10 3-28 5-36 1l4-10Z"/><path fill="#9A9A9A" d="M493 480s-8 49-13 65c-5 17-4 17-12 18l-344-2c-11-2-16-9-19-20s-5-60-5-60l379-1h14Z"/><path stroke="#1A2E35" stroke-linecap="round" stroke-linejoin="round" stroke-miterlimit="10" stroke-width="1.3" d="M493 480s-8 49-13 65c-5 17-4 17-12 18l-344-2c-11-2-16-9-19-20s-5-60-5-60l379-1h14Z"/><path fill="#1A2E35" d="M100 489s1 5 8 6c7 2 179 4 184 4 6 0 146 0 169-2 22-2 34-5 32-17-2-13-1-3-1-3l-396 5 4 7Z"/><path fill="#B3B3B3" d="M125 424s-25 17-32 25c-7 7-3 13-2 19s3 18 12 23c8 4 111 2 170 4 60 2 189 0 204-4 16-4 20-23 21-35 1-11-10-26-17-28-6-2-59-2-118-1s-85 6-153 5c-67-1-70-10-85-8Z"/></g><mask id="i" width="410" height="73" x="89" y="423" maskUnits="userSpaceOnUse" style="mask-type:luminance"><path fill="#fff" d="M125 424s-25 17-32 25c-7 7-3 13-2 19s3 18 12 23c8 4 111 2 170 4 60 2 189 0 204-4 16-4 20-23 21-35 1-11-10-26-17-28-6-2-59-2-118-1s-85 6-153 5c-58-1-68-8-79-8h-6Z"/></mask><g mask="url(#i)"><path fill="#9A9A9A" d="M91 468c1 6 3 18 12 23 8 4 111 2 170 4 60 2 189 0 204-4 16-4 26-19 27-30l-1-5c-2 2-6 0-11-1-12-2-131 6-220 6-97 0-128 0-176-9-7-2-3-3-3-3-7 7-3 13-2 19Z"/></g><mask id="j" width="667" height="667" x="0" y="0" maskUnits="userSpaceOnUse" style="mask-type:luminance"><path fill="#fff" d="M0 0h667v667H0V0Z"/></mask><g stroke="#1A2E35" stroke-linecap="round" stroke-linejoin="round" stroke-miterlimit="10" stroke-width="1.3" mask="url(#j)"><path d="M125 424s-25 17-32 25c-7 7-3 13-2 19s3 18 12 23c8 4 111 2 170 4 60 2 189 0 204-4 16-4 20-23 21-35 1-11-10-26-17-28-6-2-59-2-118-1s-85 6-153 5c-67-1-70-10-85-8Z"/><path d="m298 340-1 90s-4 25-3 28v37"/></g><mask id="k" width="667" height="667" x="0" y="0" maskUnits="userSpaceOnUse" style="mask-type:luminance"><path fill="#fff" d="M0 0h667v667H0V0Z"/></mask><g mask="url(#k)"><path fill="#1A2E35" d="m138 382 6-6c5-5 10-9 15-9s-4 4-4 4 8-2 14 0c6 3-2 6-2 6s9 3 9 7c-1 4-3 3-14 3-12 0-18 3-22 1-5-1-8-2-2-6Z"/><path stroke="#1A2E35" stroke-linecap="round" stroke-linejoin="round" stroke-miterlimit="10" stroke-width="1.3" d="m138 382 6-6c5-5 10-9 15-9s-4 4-4 4 8-2 14 0c6 3-2 6-2 6s9 3 9 7c-1 4-3 3-14 3-12 0-18 3-22 1-5-1-8-2-2-6Z"/><path fill="#fff" d="M122 330s8 4 10 8c3 4 0 8 6 8 3 1 7 1 7 4v4l3 14c-1 3-11 6-11 6s-1 4 1 7l14 12c2 1-30 5-30 5s-7-15-17-20c-10-6-15-5-15-11 0-5 9-24 17-31 9-6 15-6 15-6Z"/><path stroke="#1A2E35" stroke-linecap="round" stroke-linejoin="round" stroke-miterlimit="10" stroke-width="1.3" d="M122 330s8 4 10 8c3 4 0 8 6 8 3 1 7 1 7 4v4l3 14c-1 3-11 6-11 6s-1 4 1 7l14 12c2 1-30 5-30 5s-7-15-17-20c-10-6-15-5-15-11 0-5 9-24 17-31 9-6 15-6 15-6Z"/><path fill="#1A2E35" d="M133 350h-2l2 2v-2Z"/><path fill="#fff" d="M130 352h4Z"/><path stroke="#1A2E35" stroke-linecap="round" stroke-linejoin="round" stroke-miterlimit="10" stroke-width=".7" d="M130 352h4"/><path fill="#1A2E35" d="m137 374-13 1s9 5 13 5v-6Z"/><path stroke="#1A2E35" stroke-linecap="round" stroke-linejoin="round" stroke-miterlimit="10" stroke-width="1.3" d="m137 374-13 1s9 5 13 5v-6Z"/><path fill="#fff" d="m131 346 2 3-5 3"/><path stroke="#1A2E35" stroke-linecap="round" stroke-linejoin="round" stroke-miterlimit="10" stroke-width="1.3" d="m131 346 2 3-5 3"/><path fill="#fff" d="M135 360s1 3 6 1Z"/><path stroke="#1A2E35" stroke-linecap="round" stroke-linejoin="round" stroke-miterlimit="10" stroke-width="1.3" d="M135 360s1 3 6 1"/><path fill="#fff" d="M129 342s-4-1-6 3Z"/><path stroke="#1A2E35" stroke-linecap="round" stroke-linejoin="round" stroke-miterlimit="10" stroke-width="1.3" d="M129 342s-4-1-6 3"/><path fill="#1A2E35" d="m126 327-6 25c-2 9-6 14-7 18 0 3 4 12 3 16-2 3-3-2-11-7l-18-11c-17-11 11-42 24-44 13-1 16-1 15 3Z"/></g><mask id="l" width="45" height="64" x="81" y="323" maskUnits="userSpaceOnUse" style="mask-type:luminance"><path fill="#fff" d="M111 324c-13 2-41 33-24 44l18 11c8 5 9 10 11 7 1-4-3-13-3-16 1-4 5-9 7-18l6-25c0-2-1-3-5-3h-10Z"/></mask><g stroke="#666" stroke-linecap="round" stroke-linejoin="round" stroke-miterlimit="10" stroke-width="1.3" mask="url(#l)"><path d="M127 324s-9 41-37 51M121 322s-12 37-37 45"/><path d="M98 328s-1 27-16 38"/></g><mask id="m" width="667" height="667" x="0" y="0" maskUnits="userSpaceOnUse" style="mask-type:luminance"><path fill="#fff" d="M0 0h667v667H0V0Z"/></mask><g mask="url(#m)"><path stroke="#1A2E35" stroke-linecap="round" stroke-linejoin="round" stroke-miterlimit="10" stroke-width="1.3" d="m126 327-6 25c-2 9-6 14-7 18 0 3 4 12 3 16-2 3-3-2-11-7l-18-11c-17-11 11-42 24-44 13-1 16-1 15 3Z"/><path fill="#fff" d="M118 366s-6-6-10-4c-3 2 0 8 2 9h7"/><path stroke="#1A2E35" stroke-linecap="round" stroke-linejoin="round" stroke-miterlimit="10" stroke-width="1.3" d="M118 366s-6-6-10-4c-3 2 0 8 2 9h7"/><mask id="n" width="259" height="111" x="77" y="342" maskUnits="userSpaceOnUse" style="mask-type:luminance"><path fill="#fff" d="M77 343h258v110H77V343Z"/></mask><g mask="url(#n)"><path fill="#000" d="M77 399s17 8 20 17c4 9 4 18 10 21 6 4 17 10 30 12 12 3 22 2 22 2l41 2c17 0 44-6 44-6s19 2 31-22 57-57 60-82c0 0-54 26-62 37s-62 41-90 41-60-22-78-34-29 0-28 12Z" opacity=".3"/></g><path fill="#fff" d="M138 423s-11-22-19-34c-9-12-16-18-25-22l-18-9c-4-2-6-1-6 9-1 9-3 25 7 32 10 8 14 8 20 11s10 10 14 21c5 10 21 10 27 9 6 0 3-11 0-17Z"/><path stroke="#1A2E35" stroke-linecap="round" stroke-linejoin="round" stroke-miterlimit="10" stroke-width="1.3" d="M138 423s-11-22-19-34c-9-12-16-18-25-22l-18-9c-4-2-6-1-6 9-1 9-3 25 7 32 10 8 14 8 20 11s10 10 14 21c5 10 21 10 27 9 6 0 3-11 0-17Z"/><path fill="#1A2E35" d="M241 391s13-39 18-42c5-4 49-17 66-21s39-20 42-23c2-2 8-5 6 2s-3 10-7 15c-3 4-1 7-3 11-3 4-6 4-12 0-6-3-9-3-16 2-6 5-19 18-33 22l-19 5s-6 29-14 42c-9 13-12 19-25 17-14-3-8-24-7-26l4-4Z"/><path stroke="#1A2E35" stroke-linecap="round" stroke-linejoin="round" stroke-miterlimit="10" stroke-width="1.3" d="M241 391s13-39 18-42c5-4 49-17 66-21s39-20 42-23c2-2 8-5 6 2s-3 10-7 15c-3 4-1 7-3 11-3 4-6 4-12 0-6-3-9-3-16 2-6 5-19 18-33 22l-19 5s-6 29-14 42c-9 13-12 19-25 17-14-3-8-24-7-26l4-4Z"/><path fill="#fff" d="M363 333c2-4 0-7 3-11 4-5 5-8 7-15s-4-4-6-2-17 14-32 20l4 8c5-3 7-2 12 0 6 4 9 4 12 0Z"/><path stroke="#1A2E35" stroke-linecap="round" stroke-linejoin="round" stroke-miterlimit="10" stroke-width="1.3" d="M363 333c2-4 0-7 3-11 4-5 5-8 7-15s-4-4-6-2-17 14-32 20l4 8c5-3 7-2 12 0 6 4 9 4 12 0Z"/><path fill="#AAA" d="m367 305-1 1c1 2 3 3 6 4l1-3c2-7-4-4-6-2Z"/><path stroke="#1A2E35" stroke-linecap="round" stroke-linejoin="round" stroke-miterlimit="10" stroke-width="1.3" d="m367 305-1 1c1 2 3 3 6 4l1-3c2-7-4-4-6-2Z"/><path fill="#1A2E35" d="M215 443s36 7 50 2c13-5 19-20 23-31 3-10 4-31 6-37l3-7 25-12c10-5 17-24 23-28 5-4 6 1 9-2s9-16 10-23c1-8-4-13-6-13s-2 4-5 9c-4 6-9 16-14 19l-39 23c-10 6-22 8-28 19l-18 36-4 5-11 4c-7 2-16 1-20 5s-4 31-4 31Z"/><path stroke="#1A2E35" stroke-linecap="round" stroke-linejoin="round" stroke-miterlimit="10" stroke-width="1.3" d="M215 443s36 7 50 2c13-5 19-20 23-31 3-10 4-31 6-37l3-7 25-12c10-5 17-24 23-28 5-4 6 1 9-2s9-16 10-23c1-8-4-13-6-13s-2 4-5 9c-4 6-9 16-14 19l-39 23c-10 6-22 8-28 19l-18 36-4 5-11 4c-7 2-16 1-20 5s-4 31-4 31Z"/><path stroke="#fff" stroke-linecap="round" stroke-linejoin="round" stroke-miterlimit="10" stroke-width="1.3" d="M256 393s18-37 21-38c3 0 41-21 41-21M239 414s5 10 6 16M242 415s3 1 7 9M250 426l1 5"/><path fill="#fff" d="M358 292c-2 0-2 4-5 9-4 6-9 16-14 19l-5 4c2 1 5 4 7 10l4-4c5-4 6 1 9-2s9-16 10-23c1-8-4-13-6-13Z"/><path stroke="#1A2E35" stroke-linecap="round" stroke-linejoin="round" stroke-miterlimit="10" stroke-width="1.3" d="M358 292c-2 0-2 4-5 9-4 6-9 16-14 19l-5 4c2 1 5 4 7 10l4-4c5-4 6 1 9-2s9-16 10-23c1-8-4-13-6-13Z"/><path fill="#AAA" d="M358 292c-2 0-2 3-4 6 3 1 7 3 10 6 1-8-4-12-6-12Z"/><path stroke="#1A2E35" stroke-linecap="round" stroke-linejoin="round" stroke-miterlimit="10" stroke-width="1.3" d="M358 292c-2 0-2 3-4 6 3 1 7 3 10 6 1-8-4-12-6-12Z"/><path fill="#AF0" d="m193 382-6 5-7 11 7 8 6-19 3-2-3-3Z"/><path stroke="#1A2E35" stroke-linecap="round" stroke-linejoin="round" stroke-miterlimit="10" stroke-width="1.3" d="m193 382-6 5-7 11 7 8 6-19 3-2-3-3Z"/><path fill="#AF0" d="M125 389s19-3 30-3c11-1 15-2 19 1l16 17c2 2 35-2 35-2s3 8 1 21-10 20-10 20-22 4-37 2c-28-2-38-12-45-20-7-9-13-27-13-31 0-3 4-5 4-5Z"/><path stroke="#1A2E35" stroke-linecap="round" stroke-linejoin="round" stroke-miterlimit="10" stroke-width="1.3" d="M125 389s19-3 30-3c11-1 15-2 19 1l16 17c2 2 35-2 35-2s3 8 1 21-10 20-10 20-22 4-37 2c-28-2-38-12-45-20-7-9-13-27-13-31 0-3 4-5 4-5Z"/><path fill="#fff" d="M195 388s-14 2-15 6c-2 4 5 30 7 32 3 1 8-2 8-2h30c17-1 23-9 25-9 2-1 8-2 8-4-1-2-6-18-14-24-7-6-19-7-30-4l-19 5Z"/><path stroke="#1A2E35" stroke-linecap="round" stroke-linejoin="round" stroke-miterlimit="10" stroke-width="1.3" d="M195 388s-14 2-15 6c-2 4 5 30 7 32 3 1 8-2 8-2h30c17-1 23-9 25-9 2-1 8-2 8-4-1-2-6-18-14-24-7-6-19-7-30-4l-19 5Z"/><path fill="#fff" d="m189 388 3 13 42-5-8-12-37 4Z"/><path stroke="#1A2E35" stroke-linecap="round" stroke-linejoin="round" stroke-miterlimit="10" stroke-width="1.3" d="m189 388 3 13 42-5-8-12-37 4Z"/><path fill="#1A2E35" d="M213 389v2l3-1-1-2-2 1ZM216 391h-2l1 3 2-1-1-2ZM201 395h2l-1-2h-2l1 2ZM216 388l1 2h2v-2h-3ZM202 390v2h3v-2h-3ZM209 389l1 2h3l-1-2h-3ZM205 390l1 2 3-1-1-2-3 1ZM214 394l-1-3-3 1 1 2h3ZM218 394v1h3v-2l-3 1ZM223 390h-3l1 3 3-1-1-2ZM217 391l1 2h2l-1-3-2 1ZM225 394h3v-2l-3 1v1ZM204 396v1l3-1v-1l-3 1ZM206 392l-3 1v2h3v-3ZM209 392h-3l1 3 3-1-1-2ZM211 395l1 1 3-1-1-1-3 1ZM219 387h2v-1h-2v1ZM205 389h3v-1h-3v1ZM212 388h3v-1h-3v1ZM209 389l3-1-1-1-2 1v1ZM202 390l2-1h-3l1 1ZM201 390v-1h-2v1h2ZM203 397v-1h-2v1h2ZM222 387l2-1h-2v1ZM200 393l2-1-1-2-2 1 1 2ZM224 393h-3l1 1h2v-1ZM216 388l2-1h-3l1 1ZM211 395h-4l1 1h3v-1ZM217 394h-2v1h3l-1-1ZM219 388l1 2 2-1v-2l-3 1Z"/><path fill="#1A2E35" d="m226 389-3 1 1 2h3l-1-3ZM223 389h3l-1-2h-3l1 2Z"/><path fill="#fff" d="m234 396 3-39-10-5-1 32 8 12Z"/><path stroke="#1A2E35" stroke-linecap="round" stroke-linejoin="round" stroke-miterlimit="10" stroke-width="1.3" d="m234 396 3-39-10-5-1 32 8 12Z"/><path fill="#AF0" d="m229 356-1 27 4 7 2-31-5-3Z"/><path stroke="#1A2E35" stroke-linecap="round" stroke-linejoin="round" stroke-miterlimit="10" stroke-width=".7" d="m229 356-1 27 4 7 2-31-5-3Z"/><path fill="#fff" d="M210 378s2-1 4 1l5 5h-2l-7-6Z"/><path stroke="#1A2E35" stroke-linecap="round" stroke-linejoin="round" stroke-miterlimit="10" stroke-width="1.3" d="M210 378s2-1 4 1l5 5h-2l-7-6Z"/><path fill="#fff" d="M206 378h4c1 1 9 7 8 8h-2c-2 0-10-8-10-8Z"/><path stroke="#1A2E35" stroke-linecap="round" stroke-linejoin="round" stroke-miterlimit="10" stroke-width="1.3" d="M206 378h4c1 1 9 7 8 8h-2c-2 0-10-8-10-8Z"/><path fill="#fff" d="M191 386s-2-2 2-4l12-5c2 0 11 9 11 9l-1 2-10-5-7 3c-1 0-4 2-7 0Z"/><path stroke="#1A2E35" stroke-linecap="round" stroke-linejoin="round" stroke-miterlimit="10" stroke-width="1.3" d="M191 386s-2-2 2-4l12-5c2 0 11 9 11 9l-1 2-10-5-7 3c-1 0-4 2-7 0Z"/><path fill="#fff" d="m199 383 10 4-2 1c-1 1-5-2-7-1l-7 1c-2 0-2-3-2-3"/><path stroke="#1A2E35" stroke-linecap="round" stroke-linejoin="round" stroke-miterlimit="10" stroke-width="1.3" d="m199 383 10 4-2 1c-1 1-5-2-7-1l-7 1c-2 0-2-3-2-3"/><path fill="#AF0" d="M139 390s-9-6-17-3c-9 3-7 14-1 27 7 12 32 36 36 39 4 2 8 0 11-5s10-35 13-40l3-7 6-3 6-5 10-4c1-1 0-1-1-1h-12c-5 0-12 5-14 8l-19 33-21-29"/><path stroke="#1A2E35" stroke-linecap="round" stroke-linejoin="round" stroke-miterlimit="10" stroke-width="1.3" d="M139 390s-9-6-17-3c-9 3-7 14-1 27 7 12 32 36 36 39 4 2 8 0 11-5s10-35 13-40l3-7 6-3 6-5 10-4c1-1 0-1-1-1h-12c-5 0-12 5-14 8l-19 33-21-29"/><path fill="#fff" d="m196 393 10-4c1-1 0-1-1-1h-12c-5 0-12 5-14 8l-6 10 7 3 1-1 3-7 6-3 6-5Z"/><path stroke="#1A2E35" stroke-linecap="round" stroke-linejoin="round" stroke-miterlimit="10" stroke-width="1.3" d="m196 393 10-4c1-1 0-1-1-1h-12c-5 0-12 5-14 8l-6 10 7 3 1-1 3-7 6-3 6-5Z"/></g><mask id="o" width="667" height="667" x="0" y="0" maskUnits="userSpaceOnUse" style="mask-type:luminance"><path fill="#fff" d="M0 0h667v667H0V0Z"/></mask><g mask="url(#o)"><path fill="#fff" d="M466 216H61c-3 0-6-2-6-6v-41c0-3 3-6 6-6h405c3 0 6 3 6 6v41c0 4-3 6-6 6Z"/><path stroke="#1A2E35" stroke-linecap="round" stroke-linejoin="round" stroke-miterlimit="10" stroke-width="1.3" d="M466 216H61c-3 0-6-2-6-6v-41c0-3 3-6 6-6h405c3 0 6 3 6 6v41c0 4-3 6-6 6Z"/><path fill="#1A2E35" d="M466 216h-53v-53h53c3 0 6 3 6 6v41c0 4-3 6-6 6Z"/><path stroke="#1A2E35" stroke-linecap="round" stroke-linejoin="round" stroke-miterlimit="10" stroke-width="1.3" d="M466 216h-53v-53h53c3 0 6 3 6 6v41c0 4-3 6-6 6Z"/><path fill="#1A2E35" d="M88 199v3h-4v-11l-1-2-3-1-2 1-2 3v10h-4l-1-3v-19l1-2 2-1 2 1v9l3-2 3-1 3 1 2 1 1 2 1 3-1 8ZM96 201l-2-4v-9h-1l-2-2v-1h3l1-4c0-2 1-3 2-3 2 0 2 1 2 3v4h3l1 1-1 2h-3v7l1 3 1 1h3v2a2 2 0 0 1 0 1h-2a20 20 0 0 1-2 1h-1l-3-2ZM110 201l-2-4v-9h-1l-2-2 1-1h3v-4c0-2 1-3 2-3 2 0 2 1 2 3v4h3l2 1-2 2h-3v7l1 3 1 1h3v2a2 2 0 0 1 0 1h-2a20 20 0 0 1-2 1l-4-2ZM133 199l1-1 1-2a10 10 0 0 0-1-6 4 4 0 0 0-3-2l-4 1-1 4 1 5 4 1h2Zm-11 9-1-2v-18l1-3h4v3c1-3 3-4 6-4l6 3 2 7c0 2-1 5-3 6-1 2-3 3-5 3-3 0-5-1-6-3v8l-2 1-2-1ZM143 200a2 2 0 0 1 0-1v-1h2a28 28 0 0 1 2 1h1a32 32 0 0 0 2 0h2l1-1 1-1-1-1-2-1h-2a80 80 0 0 1-4-2h-1l-1-1v-5l2-1 2-1 3-1 6 2 1 1-1 1-1 1a2 2 0 0 1-1-1l-4-1-1 1h-1l-1 1 1 1 1 1 3 1h2l2 1 1 2 1 2a5 5 0 0 1-4 5l-4 1-7-2v-1ZM162 202v-4l2-1 2 1 1 2-1 2h-4Zm0-13v-4l2-1 2 1 1 2-1 1-2 1h-2ZM171 204v-2l8-24 1-1h2l1 1-1 1-8 24-1 2-2-1ZM185 204v-2l8-24 1-1h2v2l-8 24-2 2-1-1ZM217 202l-1-3-3-10-3 10-2 3h-4l-1-3-4-11v-1a2 2 0 0 1 1-2 2 2 0 0 1 2 0h1v1l3 11 4-9 1-3h4l1 3 3 9 3-11 1-1h3l1 2-1 1-3 11-1 3h-5ZM248 202l-2-3-3-10-3 10-1 3h-5l-1-3-3-11-1-1a2 2 0 0 1 2-2 2 2 0 0 1 1 0h1l1 1 3 11 3-9 1-3h4l1 3 4 9 3-11 1-1h2l1 2v1l-4 11-1 3h-4ZM278 202l-1-3-3-10-3 10-2 3h-4l-1-3-4-11v-1a2 2 0 0 1 1-2 2 2 0 0 1 2 0h1v1l3 11 4-9 1-3h4l1 3 3 9 3-11 1-1h3l1 2a3 3 0 0 1-1 1l-3 11-1 3h-5Z"/><path fill="#fff" d="M425 182a10 10 0 1 1 20 0 10 10 0 0 1-20 0Zm34 22-13-14c2-2 2-5 2-8a13 13 0 1 0-6 12l13 15a3 3 0 0 0 4 0c2-1 2-3 0-5Z"/><path stroke="#1A2E35" stroke-linecap="round" stroke-linejoin="round" stroke-miterlimit="10" stroke-width="1.3" d="M231 218v113"/></g></g><defs><clipPath id="a"><path fill="#fff" d="M0 0h667v667H0z"/></clipPath></defs></svg>